<svg width="109" height="24" viewBox="0 0 109 24" fill="none" xmlns="http://www.w3.org/2000/svg">
<path fill-rule="evenodd" clip-rule="evenodd" d="M6.83011 8.45696L10.1745 3L13.566 8.45696H6.83011ZM3.3915 14.0019L0 19.4589H6.73589L3.3915 14.0019ZM17.0517 14.0019L13.7073 19.4589H20.4432L17.0517 14.0019Z" fill="#212023"/>
<path d="M47.2361 15.5865C47.2361 16.4045 47.0917 17.1504 46.7789 17.8241C46.4902 18.4978 46.0812 19.0511 45.5519 19.5323C45.0466 19.9895 44.4451 20.3504 43.7714 20.615C43.0977 20.8797 42.3759 21 41.606 21C40.8601 21 40.1383 20.8797 39.4406 20.615C38.7669 20.3504 38.1654 19.9895 37.6601 19.5323C37.1549 19.0752 36.7459 18.4978 36.4571 17.8241C36.1684 17.1504 36 16.4045 36 15.5865C36 14.7684 36.1444 14.0226 36.4571 13.3489C36.7459 12.6752 37.1549 12.1218 37.6601 11.6647C38.1654 11.2075 38.7669 10.8466 39.4406 10.606C40.1143 10.3654 40.8361 10.2451 41.606 10.2451C42.3759 10.2451 43.0977 10.3654 43.7714 10.606C44.4451 10.8466 45.0466 11.2075 45.5519 11.6647C46.0571 12.1218 46.4662 12.6752 46.7789 13.3489C47.0677 14.0226 47.2361 14.7684 47.2361 15.5865ZM44.0361 15.5865C44.0361 15.2737 43.988 14.9369 43.8677 14.6241C43.7474 14.3113 43.603 14.0466 43.4105 13.806C43.218 13.5654 42.9534 13.3729 42.6647 13.2286C42.3759 13.0842 42.015 13.012 41.6301 13.012C41.2451 13.012 40.8842 13.0842 40.5955 13.2286C40.3068 13.3729 40.0421 13.5654 39.8496 13.806C39.6571 14.0466 39.5128 14.3113 39.3925 14.6241C39.2962 14.9369 39.2481 15.2496 39.2481 15.5865C39.2481 15.9233 39.2962 16.2361 39.3925 16.5489C39.4887 16.8617 39.6571 17.1504 39.8496 17.391C40.0421 17.6316 40.3068 17.8481 40.5955 17.9925C40.8842 18.1369 41.2451 18.209 41.6301 18.209C42.015 18.209 42.3759 18.1369 42.6647 17.9925C42.9534 17.8481 43.218 17.6557 43.4105 17.391C43.603 17.1504 43.7714 16.8617 43.8677 16.5489C43.9639 16.2361 44.0361 15.9233 44.0361 15.5865Z" fill="#4C4A4A"/>
<path d="M55.1759 20.6872V19.2917H55.1278C55.0075 19.5323 54.8391 19.7489 54.6466 19.9414C54.4541 20.1338 54.2135 20.3263 53.9489 20.4707C53.6842 20.615 53.3955 20.7353 53.0827 20.8316C52.7699 20.9278 52.4331 20.9759 52.0722 20.9759C51.3985 20.9759 50.821 20.8556 50.3639 20.615C49.9068 20.3744 49.5218 20.0617 49.2331 19.6767C48.9444 19.2917 48.7278 18.8587 48.6075 18.3534C48.4872 17.8722 48.415 17.3669 48.415 16.8376V10.606H51.7594V16.0677C51.7594 16.3564 51.7835 16.6211 51.8316 16.8857C51.8797 17.1504 51.9519 17.3669 52.0722 17.5835C52.1925 17.7759 52.3368 17.9444 52.5293 18.0647C52.7218 18.185 52.9624 18.2331 53.2752 18.2331C53.8526 18.2331 54.3098 18.0165 54.5985 17.5835C54.9113 17.1504 55.0556 16.6451 55.0556 16.0677V10.606H58.3759V20.6872H55.1759Z" fill="#4C4A4A"/>
<path d="M66.7007 13.3248C66.5564 13.2767 66.412 13.2526 66.2676 13.2526C66.1233 13.2286 65.9789 13.2286 65.8586 13.2286C65.4015 13.2286 65.0406 13.3007 64.7278 13.4692C64.415 13.6376 64.1744 13.8301 64.006 14.0466C63.8376 14.2632 63.6932 14.5278 63.621 14.7925C63.5488 15.0571 63.5007 15.2977 63.5007 15.4902V20.6632H60.1804V10.5819H63.3804V12.0496H63.4285C63.6932 11.5444 64.0541 11.1113 64.5112 10.7744C64.9924 10.4376 65.5218 10.2932 66.1473 10.2932C66.2917 10.2932 66.412 10.2932 66.5323 10.3173C66.6526 10.3413 66.7729 10.3413 66.8451 10.3895L66.7007 13.3248Z" fill="#4C4A4A"/>
<path d="M75.2662 7.81503C75.1459 7.76691 75.0015 7.74285 74.8331 7.71879C74.6647 7.69473 74.5203 7.67068 74.3519 7.67068C74.0391 7.67068 73.7985 7.71879 73.6061 7.83909C73.4136 7.9594 73.2692 8.10376 73.1489 8.27218C73.0527 8.46466 72.9564 8.65714 72.9324 8.89774C72.8843 9.13834 72.8602 9.35489 72.8602 9.59549V10.606H75.0978V13.0842H72.8602V20.7113H69.5399V13.0842H67.6873V10.606H69.5399V9.64361C69.5399 9.01804 69.6121 8.4406 69.7324 7.86316C69.8767 7.30977 70.0933 6.80451 70.4301 6.39549C70.767 5.9624 71.2 5.62557 71.7775 5.38496C72.3309 5.14436 73.0286 5 73.8707 5C74.1594 5 74.4241 5.02406 74.7128 5.04812C75.0015 5.07218 75.2421 5.14436 75.4827 5.19248L75.2662 7.81503ZM80.0782 7.35789C80.0782 7.62255 80.0301 7.86315 79.9339 8.0797C79.8376 8.29624 79.6933 8.48872 79.5249 8.65714C79.3564 8.82556 79.1399 8.94586 78.9233 9.0421C78.6827 9.13834 78.4421 9.18646 78.2015 9.18646C77.6722 9.18646 77.2151 9.01804 76.8542 8.65714C76.4933 8.29624 76.3008 7.86316 76.3008 7.38195C76.3008 7.14135 76.3489 6.90075 76.4452 6.68421C76.5414 6.46767 76.6858 6.27519 76.8542 6.10677C77.0226 5.93835 77.2391 5.81805 77.4557 5.7218C77.6963 5.62556 77.9369 5.57744 78.2015 5.57744C78.4662 5.57744 78.7068 5.62556 78.9233 5.7218C79.1639 5.81805 79.3564 5.93835 79.5249 6.10677C79.6933 6.27519 79.8376 6.46767 79.9339 6.68421C80.0301 6.87669 80.0782 7.11729 80.0782 7.35789ZM76.4933 20.6872V10.606H79.8376V20.6872H76.4933Z" fill="#4C4A4A"/>
<path d="M88.2105 13.3248C88.0661 13.2767 87.9218 13.2526 87.7774 13.2526C87.633 13.2286 87.4887 13.2286 87.3684 13.2286C86.9112 13.2286 86.5503 13.3007 86.2376 13.4692C85.9248 13.6376 85.6842 13.8301 85.5157 14.0466C85.3233 14.2872 85.203 14.5278 85.1308 14.7925C85.0586 15.0571 85.0105 15.2977 85.0105 15.4902V20.6632H81.6902V10.5819H84.8902V12.0496H84.9383C85.203 11.5444 85.5639 11.1113 86.021 10.7744C86.5022 10.4376 87.0315 10.2932 87.6571 10.2932C87.8015 10.2932 87.9218 10.2932 88.0421 10.3173C88.1624 10.3413 88.2827 10.3413 88.3548 10.3895L88.2105 13.3248Z" fill="#4C4A4A"/>
<path d="M99.3264 15.7549C99.3264 15.8992 99.3264 16.0196 99.3264 16.1639C99.3264 16.3083 99.3264 16.4286 99.3023 16.5489H91.9881C92.0121 16.8376 92.1084 17.0782 92.2527 17.3188C92.3971 17.5594 92.5655 17.7519 92.8061 17.9203C93.0226 18.0887 93.2873 18.2331 93.552 18.3053C93.8407 18.4015 94.1054 18.4496 94.4181 18.4496C94.9475 18.4496 95.3805 18.3534 95.7655 18.1609C96.1264 17.9684 96.4392 17.7038 96.6557 17.391L98.9655 18.8587C98.4843 19.5564 97.8587 20.0857 97.0888 20.4466C96.3189 20.8075 95.4046 21 94.3941 21C93.6482 21 92.9264 20.8797 92.2527 20.6391C91.579 20.3985 90.9775 20.0617 90.4723 19.6045C89.967 19.1474 89.558 18.594 89.2693 17.9444C88.9805 17.2707 88.8362 16.5248 88.8362 15.6827C88.8362 14.8647 88.9805 14.1188 89.2693 13.4451C89.558 12.7714 89.9429 12.2181 90.4241 11.7368C90.9053 11.2556 91.4828 10.9188 92.1565 10.6541C92.8302 10.3895 93.5279 10.2692 94.2978 10.2692C95.0437 10.2692 95.7174 10.3895 96.3429 10.6541C96.9685 10.8947 97.4978 11.2556 97.955 11.7368C98.4121 12.2181 98.749 12.7955 98.9896 13.4692C99.2061 14.1188 99.3264 14.8887 99.3264 15.7549ZM96.2708 14.4797C96.2708 13.9504 96.1023 13.4932 95.7655 13.1323C95.4287 12.7474 94.9475 12.5549 94.2738 12.5549C93.961 12.5549 93.6482 12.603 93.3835 12.6993C93.1189 12.7955 92.8783 12.9399 92.6858 13.1083C92.4933 13.2767 92.3249 13.4932 92.2046 13.7338C92.0843 13.9744 92.0121 14.215 92.0121 14.4797H96.2708Z" fill="#4C4A4A"/>
<path d="M106.929 13.5654C106.665 13.3008 106.352 13.0842 105.967 12.9158C105.606 12.7474 105.221 12.6511 104.812 12.6511C104.499 12.6511 104.211 12.7233 103.946 12.8436C103.681 12.9639 103.561 13.1805 103.561 13.4692C103.561 13.7579 103.705 13.9504 103.994 14.0707C104.283 14.191 104.764 14.3353 105.414 14.4797C105.799 14.5519 106.184 14.6722 106.568 14.8165C106.953 14.9609 107.29 15.1534 107.603 15.394C107.916 15.6346 108.156 15.9233 108.349 16.2842C108.541 16.6451 108.638 17.0541 108.638 17.5353C108.638 18.1609 108.517 18.7143 108.253 19.1474C107.988 19.5805 107.651 19.9414 107.242 20.206C106.833 20.4707 106.376 20.6632 105.847 20.7835C105.341 20.9038 104.812 20.9759 104.307 20.9759C103.489 20.9759 102.671 20.8556 101.877 20.591C101.083 20.3263 100.433 19.9414 99.9038 19.4361L101.756 17.4632C102.045 17.7759 102.43 18.0647 102.839 18.2812C103.272 18.4977 103.729 18.594 104.211 18.594C104.475 18.594 104.74 18.5218 105.005 18.4015C105.269 18.2812 105.39 18.0406 105.39 17.7278C105.39 17.415 105.221 17.1985 104.908 17.0301C104.596 16.8857 104.066 16.7173 103.393 16.5729C103.032 16.5008 102.695 16.3805 102.334 16.2602C101.973 16.1158 101.66 15.9474 101.396 15.7068C101.107 15.4662 100.89 15.2015 100.722 14.8647C100.553 14.5278 100.457 14.1188 100.457 13.6376C100.457 13.0361 100.577 12.5068 100.842 12.0977C101.107 11.6647 101.42 11.3278 101.829 11.0632C102.238 10.7985 102.695 10.582 103.176 10.4617C103.657 10.3414 104.162 10.2692 104.644 10.2692C105.39 10.2692 106.135 10.3895 106.857 10.6301C107.579 10.8707 108.181 11.2316 108.686 11.6887L106.929 13.5654Z" fill="#4C4A4A"/>
</svg>
