<svg width="180" height="46" viewBox="0 0 180 46" fill="none" xmlns="http://www.w3.org/2000/svg">
<g clip-path="url(#clip0)">
<path fill-rule="evenodd" clip-rule="evenodd" d="M7.11444 18.457L10.4402 13L13.8129 18.457H7.11444ZM3.69492 24.0019L0.322266 29.4589H7.02073L3.69492 24.0019ZM17.2792 24.0019L13.9534 29.4589H20.6519L17.2792 24.0019Z" fill="#EFF0F7"/>
<path d="M47.2967 23.5865C47.2967 24.4045 47.1531 25.1504 46.8421 25.8241C46.555 26.4977 46.1482 27.0511 45.6219 27.5323C45.1194 27.9895 44.5212 28.3504 43.8513 28.615C43.1814 28.8797 42.4636 29 41.6979 29C40.9562 29 40.2384 28.8797 39.5445 28.615C38.8746 28.3504 38.2764 27.9895 37.774 27.5323C37.2715 27.0752 36.8648 26.4977 36.5776 25.8241C36.2905 25.1504 36.123 24.4045 36.123 23.5865C36.123 22.7684 36.2666 22.0226 36.5776 21.3489C36.8648 20.6752 37.2715 20.1218 37.774 19.6647C38.2764 19.2075 38.8746 18.8466 39.5445 18.606C40.2145 18.3654 40.9323 18.2451 41.6979 18.2451C42.4636 18.2451 43.1814 18.3654 43.8513 18.606C44.5212 18.8466 45.1194 19.2075 45.6219 19.6647C46.1243 20.1218 46.5311 20.6752 46.8421 21.3489C47.1292 22.0226 47.2967 22.7684 47.2967 23.5865ZM44.1145 23.5865C44.1145 23.2737 44.0666 22.9368 43.947 22.6241C43.8274 22.3113 43.6838 22.0466 43.4924 21.806C43.301 21.5654 43.0378 21.3729 42.7507 21.2286C42.4636 21.0842 42.1047 21.012 41.7218 21.012C41.339 21.012 40.9801 21.0842 40.693 21.2286C40.4059 21.3729 40.1427 21.5654 39.9513 21.806C39.7599 22.0466 39.6163 22.3113 39.4967 22.6241C39.401 22.9368 39.3531 23.2496 39.3531 23.5865C39.3531 23.9233 39.401 24.2361 39.4967 24.5489C39.5924 24.8617 39.7599 25.1504 39.9513 25.391C40.1427 25.6316 40.4059 25.8481 40.693 25.9925C40.9801 26.1368 41.339 26.209 41.7218 26.209C42.1047 26.209 42.4636 26.1368 42.7507 25.9925C43.0378 25.8481 43.301 25.6556 43.4924 25.391C43.6838 25.1504 43.8513 24.8617 43.947 24.5489C44.0427 24.2361 44.1145 23.9233 44.1145 23.5865Z" fill="#D9DAE2"/>
<path d="M55.1925 28.6872V27.2917H55.1446C55.025 27.5323 54.8575 27.7488 54.6661 27.9413C54.4747 28.1338 54.2354 28.3263 53.9722 28.4706C53.709 28.615 53.4219 28.7353 53.1109 28.8315C52.7998 28.9278 52.4648 28.9759 52.1059 28.9759C51.436 28.9759 50.8618 28.8556 50.4072 28.615C49.9526 28.3744 49.5697 28.0616 49.2826 27.6766C48.9955 27.2917 48.7802 26.8586 48.6605 26.3533C48.5409 25.8721 48.4691 25.3669 48.4691 24.8375V18.606H51.7949V24.0676C51.7949 24.3563 51.8188 24.621 51.8667 24.8857C51.9145 25.1503 51.9863 25.3669 52.1059 25.5834C52.2256 25.7759 52.3691 25.9443 52.5605 26.0646C52.7519 26.1849 52.9912 26.233 53.3023 26.233C53.8765 26.233 54.3311 26.0165 54.6182 25.5834C54.9293 25.1503 55.0728 24.6451 55.0728 24.0676V18.606H58.3747V28.6872H55.1925Z" fill="#D9DAE2"/>
<path d="M66.6533 21.3248C66.5097 21.2767 66.3661 21.2526 66.2226 21.2526C66.079 21.2285 65.9355 21.2285 65.8158 21.2285C65.3612 21.2285 65.0023 21.3007 64.6913 21.4691C64.3802 21.6376 64.141 21.8301 63.9735 22.0466C63.806 22.2631 63.6625 22.5278 63.5907 22.7925C63.5189 23.0571 63.471 23.2977 63.471 23.4902V28.6631H60.1692V18.5819H63.3514V20.0496H63.3993C63.6625 19.5443 64.0214 19.1113 64.476 18.7744C64.9545 18.4376 65.4809 18.2932 66.103 18.2932C66.2465 18.2932 66.3661 18.2932 66.4858 18.3173C66.6054 18.3413 66.725 18.3413 66.7968 18.3895L66.6533 21.3248Z" fill="#D9DAE2"/>
<path d="M75.1711 15.815C75.0515 15.7669 74.9079 15.7429 74.7404 15.7188C74.573 15.6947 74.4294 15.6707 74.2619 15.6707C73.9509 15.6707 73.7116 15.7188 73.5202 15.8391C73.3288 15.9594 73.1852 16.1038 73.0656 16.2722C72.9699 16.4647 72.8742 16.6571 72.8503 16.8977C72.8024 17.1383 72.7785 17.3549 72.7785 17.5955V18.606H75.0036V21.0842H72.7785V28.7113H69.4766V21.0842H67.6343V18.606H69.4766V17.6436C69.4766 17.018 69.5484 16.4406 69.668 15.8632C69.8116 15.3098 70.0269 14.8045 70.3619 14.3955C70.6969 13.9624 71.1275 13.6256 71.7018 13.385C72.2521 13.1444 72.946 13 73.7834 13C74.0705 13 74.3337 13.0241 74.6208 13.0481C74.9079 13.0722 75.1472 13.1444 75.3865 13.1925L75.1711 15.815ZM79.9564 15.3579C79.9564 15.6226 79.9086 15.8632 79.8129 16.0797C79.7172 16.2962 79.5736 16.4887 79.4061 16.6571C79.2386 16.8256 79.0233 16.9459 78.8079 17.0421C78.5687 17.1383 78.3294 17.1865 78.0902 17.1865C77.5638 17.1865 77.1092 17.018 76.7503 16.6571C76.3914 16.2962 76.2 15.8632 76.2 15.382C76.2 15.1414 76.2478 14.9008 76.3435 14.6842C76.4392 14.4677 76.5828 14.2752 76.7503 14.1068C76.9178 13.9383 77.1331 13.818 77.3484 13.7218C77.5877 13.6256 77.827 13.5774 78.0902 13.5774C78.3533 13.5774 78.5926 13.6256 78.8079 13.7218C79.0472 13.818 79.2386 13.9383 79.4061 14.1068C79.5736 14.2752 79.7172 14.4677 79.8129 14.6842C79.9086 14.8767 79.9564 15.1173 79.9564 15.3579ZM76.3914 28.6872V18.606H79.7171V28.6872H76.3914Z" fill="#D9DAE2"/>
<path d="M88.0435 21.3248C87.9 21.2767 87.7564 21.2526 87.6128 21.2526C87.4693 21.2285 87.3257 21.2285 87.2061 21.2285C86.7515 21.2285 86.3926 21.3007 86.0816 21.4691C85.7705 21.6376 85.5312 21.8301 85.3638 22.0466C85.1723 22.2872 85.0527 22.5278 84.9809 22.7925C84.9092 23.0571 84.8613 23.2977 84.8613 23.4902V28.6631H81.5594V18.5819H84.7417V20.0496H84.7895C85.0527 19.5443 85.4116 19.1113 85.8662 18.7744C86.3447 18.4376 86.8711 18.2932 87.4932 18.2932C87.6368 18.2932 87.7564 18.2932 87.876 18.3173C87.9957 18.3413 88.1153 18.3413 88.1871 18.3895L88.0435 21.3248Z" fill="#D9DAE2"/>
<path d="M99.0976 23.755C99.0976 23.8994 99.0976 24.0197 99.0976 24.164C99.0976 24.3084 99.0976 24.4287 99.0737 24.549H91.8C91.8239 24.8377 91.9196 25.0783 92.0632 25.3189C92.2068 25.5595 92.3743 25.752 92.6135 25.9204C92.8289 26.0888 93.092 26.2332 93.3552 26.3054C93.6423 26.4016 93.9055 26.4497 94.2166 26.4497C94.743 26.4497 95.1736 26.3535 95.5565 26.161C95.9154 25.9685 96.2264 25.7039 96.4417 25.3911L98.7387 26.8588C98.2602 27.5565 97.6381 28.0858 96.8724 28.4467C96.1068 28.8076 95.1976 29.0001 94.1927 29.0001C93.4509 29.0001 92.7331 28.8798 92.0632 28.6392C91.3933 28.3986 90.7951 28.0618 90.2926 27.6046C89.7902 27.1475 89.3834 26.5941 89.0963 25.9445C88.8092 25.2708 88.6656 24.5249 88.6656 23.6828C88.6656 22.8648 88.8092 22.1189 89.0963 21.4452C89.3834 20.7715 89.7663 20.2182 90.2448 19.737C90.7233 19.2558 91.2976 18.9189 91.9675 18.6543C92.6374 18.3896 93.3313 18.2693 94.097 18.2693C94.8387 18.2693 95.5086 18.3896 96.1307 18.6543C96.7528 18.8949 97.2792 19.2558 97.7338 19.737C98.1884 20.2182 98.5234 20.7956 98.7626 21.4693C98.978 22.1189 99.0976 22.8888 99.0976 23.755ZM96.0589 22.4798C96.0589 21.9505 95.8914 21.4933 95.5565 21.1324C95.2215 20.7475 94.743 20.555 94.073 20.555C93.762 20.555 93.4509 20.6031 93.1877 20.6994C92.9246 20.7956 92.6853 20.94 92.4939 21.1084C92.3025 21.2768 92.135 21.4933 92.0154 21.7339C91.8957 21.9745 91.8239 22.2152 91.8239 22.4798H96.0589Z" fill="#D9DAE2"/>
<path d="M106.658 21.5655C106.395 21.3009 106.084 21.0843 105.701 20.9159C105.342 20.7475 104.959 20.6512 104.553 20.6512C104.242 20.6512 103.955 20.7234 103.691 20.8437C103.428 20.964 103.309 21.1806 103.309 21.4693C103.309 21.758 103.452 21.9505 103.739 22.0708C104.026 22.1911 104.505 22.3355 105.151 22.4798C105.534 22.552 105.917 22.6723 106.299 22.8167C106.682 22.961 107.017 23.1535 107.328 23.3941C107.639 23.6347 107.879 23.9234 108.07 24.2843C108.261 24.6452 108.357 25.0543 108.357 25.5355C108.357 26.161 108.237 26.7144 107.974 27.1475C107.711 27.5806 107.376 27.9415 106.969 28.2061C106.563 28.4708 106.108 28.6633 105.582 28.7836C105.079 28.9039 104.553 28.9761 104.05 28.9761C103.237 28.9761 102.423 28.8558 101.634 28.5911C100.844 28.3264 100.198 27.9415 99.6718 27.4362L101.514 25.4633C101.801 25.7761 102.184 26.0648 102.591 26.2813C103.021 26.4979 103.476 26.5941 103.955 26.5941C104.218 26.5941 104.481 26.5219 104.744 26.4016C105.007 26.2813 105.127 26.0407 105.127 25.7279C105.127 25.4152 104.96 25.1986 104.648 25.0302C104.337 24.8858 103.811 24.7174 103.141 24.573C102.782 24.5009 102.447 24.3806 102.088 24.2603C101.729 24.1159 101.418 23.9475 101.155 23.7069C100.868 23.4663 100.653 23.2016 100.485 22.8648C100.318 22.5279 100.222 22.1189 100.222 21.6377C100.222 21.0362 100.342 20.5069 100.605 20.0979C100.868 19.6648 101.179 19.3279 101.586 19.0633C101.993 18.7986 102.447 18.5821 102.926 18.4618C103.404 18.3415 103.907 18.2693 104.385 18.2693C105.127 18.2693 105.869 18.3896 106.587 18.6302C107.304 18.8708 107.902 19.2317 108.405 19.6888L106.658 21.5655Z" fill="#D9DAE2"/>
</g>
<defs>
<clipPath id="clip0">
<rect width="179" height="46" fill="white" transform="translate(0.322266)"/>
</clipPath>
</defs>
</svg>
